<svg xmlns="http://www.w3.org/2000/svg" viewBox="0 0 663 242"><defs><style>.a,.c{fill:#2d2e82;}.b,.d{fill:none;stroke:#2d2e82;stroke-miterlimit:10;}.b{stroke-width:3.02px;}.c{fill-rule:evenodd;}.d{stroke-width:1.51px;}</style></defs><title>LogoNouDelfin</title><path class="a" d="M152.73,157.8q9.57-15.68,14.31-24.69t4.74-11.48a2,2,0,0,0-.64-1.5,2.17,2.17,0,0,0-1.5-.59q-1.66,0-9.37,3.21-6.36,2.69-9.31,4.25t-8.1,4.53q-5.18,2.94-5.92,2.94c-1,0-1.5-.69-1.5-2.09,0-2.64,1.74-6.19,5.19-10.65a46.92,46.92,0,0,1,14-11.71c.71-.47,1.07-.43,1.07.1,0,.18-.43.59-1.28,1.23a21.84,21.84,0,0,0-2.28,2,16.94,16.94,0,0,0-2.22,3q11.24-5.62,16.51-7.92a23.2,23.2,0,0,1,9-2.3,8.56,8.56,0,0,1,5.13,1.36,4.57,4.57,0,0,1,1.88,3.93,18.71,18.71,0,0,1-1.8,6.53,104.35,104.35,0,0,1-5.21,10.41q-3.43,6.14-7,12.12l-12.87,21.67q10.38-13,19.11-22.74t15.19-15.84a99.69,99.69,0,0,1,10.92-9.18q4.44-3.07,6.53-3.07c.5,0,1.09.47,1.77,1.42a15.86,15.86,0,0,1,1.81,3.45,9.45,9.45,0,0,1,.81,3.31,15.07,15.07,0,0,1-1.8,7,66.85,66.85,0,0,1-5.32,8.35q-10.07,13.59-14.69,21.41t-4.63,12.57q0,3.58,3.75,3.59a8.49,8.49,0,0,0,4-1.29,37.26,37.26,0,0,0,5.51-4q3.21-2.67,6.48-5.83l.11,4.17q-4.6,4.71-8.25,8.06T190,179.37a36.17,36.17,0,0,1-5.81,3.79,10.3,10.3,0,0,1-4.49,1.29,5.66,5.66,0,0,1-4.47-1.9,7.29,7.29,0,0,1-1.69-5,24.45,24.45,0,0,1,1.26-7,68,68,0,0,1,3.85-9.44q2.59-5.35,6.42-11.61t8.65-13.06c3.14-4.49,4.71-7.39,4.71-8.67,0-.75-.4-1.12-1.18-1.12q-4.77,0-21.73,19-1.07,1.18-3.72,4.36c-1.76,2.13-3.56,4.38-5.4,6.78s-3.9,5.07-6.18,8.05l-7,9.07c-1.1,1.46-2,2.19-2.83,2.19s-2-.69-3.37-2.08S145,171.61,145,171s1-2.62,3-5.61,3.57-5.51,4.79-7.55"/><path class="a" d="M239.09,161.55v3.58a28,28,0,0,1-5.67,4.28,12.51,12.51,0,0,1-6.15.86q-7,8.23-12.26,8.24a8.49,8.49,0,0,1-5.45-2,13.7,13.7,0,0,1-3.94-5.41,19.18,19.18,0,0,1-1.47-7.65,16.15,16.15,0,0,1,2.28-7.6,33.85,33.85,0,0,1,5.88-7.78,33.2,33.2,0,0,1,7.74-5.83A16.26,16.26,0,0,1,227.7,140a8.44,8.44,0,0,1,4,.78A2.39,2.39,0,0,1,233.1,143a4,4,0,0,1-1.23,2.46,4.55,4.55,0,0,1,2.78,1.42,6.27,6.27,0,0,1,.75,3.61,23,23,0,0,1-1.2,6.48,32.27,32.27,0,0,1-3.29,7.33l1,1h.8a3.82,3.82,0,0,0,1.8-.46,11.08,11.08,0,0,0,1.57-1l3.05-2.27m-11-14.08q-4.44,2.68-7.6,4.85a36.51,36.51,0,0,0-5.35,4.38,11.91,11.91,0,0,0-2.94,4.47q-1.34,6-1.34,6.48,0,3.53,4.92,3.53,2.31,0,7.71-4a14.07,14.07,0,0,1-.91-4.82,18.48,18.48,0,0,1,1.39-6.87,57.31,57.31,0,0,1,4.12-8.06"/><path class="a" d="M264.19,158q-7.76,10.28-11.8,14.6c-2.69,2.89-4.9,4.34-6.61,4.34a5.23,5.23,0,0,1-3.74-1.69,11,11,0,0,1-2.65-4.55,19.66,19.66,0,0,1-.94-6.12,17.47,17.47,0,0,1,.4-3.86,15.55,15.55,0,0,1,1.53-3.77,35.86,35.86,0,0,1,3-4.47q1.85-2.4,4.52-5.45l2.7-3.16a6.21,6.21,0,0,1,2.14-1.74,9.26,9.26,0,0,1,3.4-.46,11.74,11.74,0,0,1,3.27.46c1,.3,1.55.62,1.55.94a8.61,8.61,0,0,1-1.58,3.47,40.06,40.06,0,0,1-5.08,6.13,70.58,70.58,0,0,1-8.11,7.09,17.24,17.24,0,0,0-1,4.82c0,1.53.59,2.3,1.77,2.3a4.71,4.71,0,0,0,2.14-1.1c1-.73,2.68-2.14,5-4.23s4.51-3.93,6.4-5.53a38.36,38.36,0,0,0,4.84-5.44q2.76-3.6,4.47-5.43,4-4.17,5.41-5.43a4.32,4.32,0,0,1,2.78-1.26,1.83,1.83,0,0,1,1.74.81,7.67,7.67,0,0,1,.45,3.26,6.45,6.45,0,0,1-.21,1.82,8.83,8.83,0,0,1-.89,1.79c-.44.74-1.34,2.08-2.7,4s-3,4.28-4.81,7a27.88,27.88,0,0,0-2.63,4.68,10.66,10.66,0,0,0-1.12,3.83c0,1.85.73,2.78,2.19,2.78a8.28,8.28,0,0,0,4.23-1.5q2.42-1.5,7.39-5.4v3.58q-6.27,5.79-9.26,8.4a39.48,39.48,0,0,1-5.19,4,8,8,0,0,1-4.18,1.34q-4.49,0-4.49-5.35a16.3,16.3,0,0,1,1.34-5.48q1.33-3.47,4.33-10"/><path class="a" d="M316.74,131.47c0,.25.23.38.69.38s1.78-.22,4.37-.64a48.77,48.77,0,0,1,7-.7,61,61,0,0,0-6.07,2c-1.7.66-3.44,1.4-5.25,2.2s-3.09,1.34-3.87,1.6a6.5,6.5,0,0,1-2,.41q-2.73,0-2.73-3.54,0-9.09,4.6-12.79a36.16,36.16,0,0,1,6-3.55,83.35,83.35,0,0,1,9.37-3.91,91.9,91.9,0,0,1,11.48-3.18,58.44,58.44,0,0,1,12.36-1.34,34.67,34.67,0,0,1,11.5,1.82,24.31,24.31,0,0,1,8.78,5.11,22,22,0,0,1,5.43,8,28.61,28.61,0,0,1,1.9,10.7,33.13,33.13,0,0,1-5.22,17.55,53.76,53.76,0,0,1-13.91,15,71.81,71.81,0,0,1-19.61,10.3,65,65,0,0,1-21.51,3.8,9.37,9.37,0,0,1-3.13-.42,2.75,2.75,0,0,1-1.64-1.69,11,11,0,0,1-.48-3.72,21.26,21.26,0,0,1,.48-5,27.61,27.61,0,0,1,1.61-4.44q7.71-17.07,26.81-43a59.52,59.52,0,0,0-8.46,1.64c-3.07.8-6,1.68-8.72,2.64s-5.07,1.9-7,2.79-2.83,1.53-2.83,1.92m28.52-9.31c0,.07.07.48.21,1.21a9.55,9.55,0,0,1,.22,1.9,7.83,7.83,0,0,1-1.26,3.45q-1.26,2.22-4.95,7.89t-6.31,9.95q-2.62,4.29-6.21,11c-.75,1.43-1.27,2.39-1.55,2.89s-.74,1.32-1.37,2.46a19.91,19.91,0,0,0-1.36,2.94,6.18,6.18,0,0,0-.43,1.88,2,2,0,0,0,1.53,2,13.23,13.23,0,0,0,4.36.56,49.68,49.68,0,0,0,15.41-2.65,63.52,63.52,0,0,0,15.28-7.36,43,43,0,0,0,11.42-10.65,20.94,20.94,0,0,0,4.28-12.41q0-7.38-5.41-11.37t-15.73-4q-4.33,0-8.13.32"/><path class="a" d="M391.28,163.58v1.34a7.24,7.24,0,0,0,1.55,4.92,5.16,5.16,0,0,0,4.07,1.77,13.49,13.49,0,0,0,5.43-1.23,29.42,29.42,0,0,0,5.59-3.27q2.79-2,6.8-5.46v3.27a66.66,66.66,0,0,1-11.35,11.16A18.07,18.07,0,0,1,392.62,180a9,9,0,0,1-7.55-3.69q-2.77-3.69-2.78-10.11A20.06,20.06,0,0,1,384.91,156a38.58,38.58,0,0,1,8.56-9.66,33.22,33.22,0,0,1,8.08-5.25,18.27,18.27,0,0,1,7.18-1.76,6.28,6.28,0,0,1,4,1.15,4.11,4.11,0,0,1,1.47,3.45,11.15,11.15,0,0,1-2.51,6.71,29,29,0,0,1-7.68,6.64,79,79,0,0,1-12.71,6.34m.54-3.48a30.75,30.75,0,0,0,8.24-4.65,23.77,23.77,0,0,0,5.05-5.33,8.35,8.35,0,0,0,1.64-3.72c0-.82-.38-1.23-1.13-1.23a7.73,7.73,0,0,0-3.13,1.23,26,26,0,0,0-4.39,3.21,23.52,23.52,0,0,0-4,4.66,14.89,14.89,0,0,0-2.3,5.83"/><path class="a" d="M440.3,161.07v4q-11.19,14.83-18.2,14.83-3.8,0-6-4.15T414,164.81a40.91,40.91,0,0,1,2.57-13,93,93,0,0,1,6.87-15.25,95.06,95.06,0,0,1,8.94-13.49q4.62-5.76,8.59-8a5.42,5.42,0,0,1,2.51-1,1.46,1.46,0,0,1,1.5,1,10.76,10.76,0,0,1,.37,3.4q0,7.44-6,18.27a109.68,109.68,0,0,1-16.86,22.13,25.08,25.08,0,0,0-.53,4.28,9.65,9.65,0,0,0,1.47,5.57,4.68,4.68,0,0,0,4.09,2.14,5.24,5.24,0,0,0,2.89-1.05,29.21,29.21,0,0,0,3.27-2.59c1.14-1,3.37-3.09,6.69-6.15m-16-9.64a53.68,53.68,0,0,0,5.37-6.2,77.17,77.17,0,0,0,4.9-7.44,60.62,60.62,0,0,0,3.61-7.12,13.75,13.75,0,0,0,1.31-4.76c0-.82-.28-1.23-.85-1.23a3,3,0,0,0-1.23.59q-3.27,2.67-7.34,10.46a62.38,62.38,0,0,0-5.77,15.7"/><path class="a" d="M469.62,161.65v3.7q-3.21,3.21-4.87,4.65a23.16,23.16,0,0,1-4.55,2.94,61,61,0,0,1-.48,8.3,27.76,27.76,0,0,1-2.14,7.2,40.66,40.66,0,0,1-5.14,8.26,33.34,33.34,0,0,1-6.74,6.83c-2.21,1.58-3.94,2.38-5.19,2.38s-2.68-1.14-3.85-3.43a18.4,18.4,0,0,1-1.77-8.51,34.89,34.89,0,0,1,1.66-10.27q1.65-5.4,5.14-14a11.17,11.17,0,0,1-2.62-6.79,5.8,5.8,0,0,1,1.39-4.18,13,13,0,0,1,4-2.62,52.94,52.94,0,0,1,3.56-5c1.13-1.37,2.65-3.2,4.58-5.49a219.39,219.39,0,0,1,13.06-26.75c1.39-2.43,2.38-4.06,3-4.9a2.49,2.49,0,0,1,1.93-1.26c.61,0,1.14.45,1.61,1.34a7.61,7.61,0,0,1,.69,3.48,19.68,19.68,0,0,1-.56,4.82,25.06,25.06,0,0,1-1.61,4.41c-.69,1.48-1.66,3.26-2.89,5.33s-2,3.35-2.27,3.85q-2.67,4.71-6.05,10.43l-5.32,9q-2,3.31-2.81,5a62.33,62.33,0,0,1,4.57,4.34,17.76,17.76,0,0,1,2.92,4.33,17.45,17.45,0,0,0,3.32-1.66,36.63,36.63,0,0,0,3.53-2.65q2-1.68,4-3.13m-16,14.35-.11-1.13a13,13,0,0,1-2.41.08,10,10,0,0,1-2.11-.45,13.33,13.33,0,0,1-1.87-.7c-.45-.21-.94-.43-1.47-.64q-4.06,9.94-4.07,16.53a14.08,14.08,0,0,0,1,5.57c.66,1.53,1.44,2.3,2.33,2.3s2.09-.82,3.5-2.46a21.29,21.29,0,0,0,3.67-7.28A39.08,39.08,0,0,0,453.62,176"/><path class="a" d="M493.65,161.65v3.91A54.7,54.7,0,0,1,484,175.65q-4.5,3.39-7.65,3.39c-2.93,0-5.1-1.53-6.53-4.6a23.48,23.48,0,0,1-2.14-10.06,17.72,17.72,0,0,1,.43-4,14.77,14.77,0,0,1,1-3.13q.6-1.23,2.2-3.86,7.59-11.82,13.91-11.82c2.18,0,3.26.84,3.26,2.51q0,1.72-2.11,5.35a23.56,23.56,0,0,1-3.77,5.2,84.68,84.68,0,0,0-6.07,6.25,6.23,6.23,0,0,0-1.42,4,4.13,4.13,0,0,0,1.44,3.21,5.47,5.47,0,0,0,3.75,1.28,10.86,10.86,0,0,0,5.54-1.84,67.75,67.75,0,0,0,7.84-5.92M490,137.74a3.86,3.86,0,0,1-2.54-1,3.2,3.2,0,0,1-1.21-2.57,8.9,8.9,0,0,1,2.25-5.25q2.25-2.88,4.66-2.88a3.79,3.79,0,0,1,2.67,1,3.71,3.71,0,0,1,1.07,2.86,8.52,8.52,0,0,1-2.19,5.08q-2.21,2.79-4.71,2.79"/><path class="a" d="M529.23,152q-9.42,10.49-9.42,14.61c0,1.53.63,2.3,1.88,2.3a8.17,8.17,0,0,0,4-1.63q2.47-1.63,7.78-5.81v3.69q-7.59,7.5-11.66,10.81t-6.64,3.32c-2.92,0-4.39-1.93-4.39-5.78a10.85,10.85,0,0,1,.54-3.37,22.57,22.57,0,0,1,1.47-3.45c.62-1.2,1.58-2.91,2.86-5.14s2.77-4.75,4.44-7.57a33.82,33.82,0,0,0-7.65,6.15,59.66,59.66,0,0,0-5.08,5.49q-2.08,2.59-4.47,5.78a46.08,46.08,0,0,1-3.48,4.28,3.17,3.17,0,0,1-2.22,1.09q-1.71,0-3.16-3.58a22.29,22.29,0,0,1-1.44-8.35,12.6,12.6,0,0,1,.67-4.6A30,30,0,0,1,496,155.5a52.27,52.27,0,0,1,6.36-8.32q2.69-2.66,5.14-2.65a5.65,5.65,0,0,1,2.76.59,2,2,0,0,1,1,1.82,2.26,2.26,0,0,1-.32,1.12,6.9,6.9,0,0,1-.72,1.07c-.27.32-.83,1-1.69,1.87q-8.46,9.38-8.45,12.15c0,1,.34,1.55,1,1.55.42,0,1.25-.68,2.48-2.06s2.82-3.17,4.77-5.4a84.71,84.71,0,0,1,6.9-7,72.7,72.7,0,0,1,9.07-7,8.94,8.94,0,0,1,4.71-2c.57,0,1.13.78,1.68,2.35a14.33,14.33,0,0,1,.83,4.76c0,.79-.77,2-2.3,3.59"/><path class="b" d="M456.28,41.19l-1.14,2.29c3.45,4.06,8.78,2.09,13.72,2.3,10.8.46,21,10.8,31.72,13.61,5.11,1.34,10.49,0,15.11,3,4.1,2.75,12.53,16.67,18.81,22.48,6,5.5,22.28,12.65,29.66,11.75-6.83-7.29-21-19.69-18.91-27.25,21.23,8,52.15,43,59.75,65.82,1.88,5.62,5.24,13.64,6.35,19.5,6.87,36.44,7.74,26.49-2.18,40.44-6,8.39-6.63,14.18-7.65,22.93l.91.46c5.21-5.42,10.46-4.92,15.27-12.18,7.51,7,22.83,18.38,34.24,19.66l.06-.12c-4.45-5.53-6.67-15.41-10.06-22.1-15.18-29.92-18.76.8-9.44-47.12a143.86,143.86,0,0,0,2.63-26c.19-14.44-2.26-34.68-8.63-47.4-4.4-8.79-13.79-30.06,4.4-29.25,6.37.28,9,1.42,12-1.49-3-6.61-7.84-6.72-11.64-11l-11-5.44c-2.89-.23-7.59-2.32-11-2.9-17.91-3-18.44,3.13-32.27-5.91-26.08-17-60.42-22-86.27-8-18,9.72-17.71,13-25.85,16.6C460.88,37.6,459.68,39.25,456.28,41.19Z"/><path class="b" d="M212.72,41.19l1.14,2.29c-3.45,4.06-8.78,2.09-13.72,2.3-10.8.46-21,10.8-31.72,13.61-5.11,1.34-10.49,0-15.11,3-4.1,2.75-12.53,16.67-18.81,22.48-6,5.5-22.28,12.65-29.66,11.75,6.83-7.29,21-19.69,18.91-27.25-21.23,8-52.15,43-59.75,65.82-1.88,5.62-5.24,13.64-6.35,19.5-6.87,36.44-7.74,26.49,2.18,40.44,6,8.39,6.63,14.18,7.65,22.93l-.91.46c-5.21-5.42-10.46-4.92-15.27-12.18-7.51,7-22.83,18.38-34.24,19.66l-.06-.12c4.45-5.53,6.67-15.41,10.06-22.1,15.18-29.92,18.76.8,9.44-47.12a143.86,143.86,0,0,1-2.63-26C33.68,116.26,36.13,96,42.5,83.3c4.4-8.79,13.79-30.06-4.4-29.25-6.37.28-9,1.42-12-1.49,3-6.61,7.84-6.72,11.64-11l11-5.44c2.89-.23,7.59-2.32,11-2.9,17.91-3,18.44,3.13,32.27-5.91,26.08-17,60.42-22,86.27-8,18,9.72,17.71,13,25.85,16.6C208.12,37.6,209.32,39.25,212.72,41.19Z"/><path class="c" d="M166,29a1.9,1.9,0,1,1-1.9-2.05A2,2,0,0,1,166,29"/><path class="d" d="M166,29a1.9,1.9,0,1,1-1.9-2.05A2,2,0,0,1,166,29Z"/><path class="c" d="M502.79,29a1.9,1.9,0,1,1-1.9-2.05,2,2,0,0,1,1.9,2.05"/><path class="d" d="M502.79,29a1.9,1.9,0,1,1-1.9-2.05A2,2,0,0,1,502.79,29Z"/></svg>